<svg width="16" height="16" viewBox="0 0 16 16" fill="none" xmlns="http://www.w3.org/2000/svg">
<path d="M9.32527 3.33208C8.94746 2.93538 8.3674 2.80568 7.84834 3.00177C6.31068 3.58317 3.8245 4.53913 2.23451 5.15191C1.90054 5.28065 1.83637 5.70918 2.11878 5.92472C2.80462 6.44778 3.54085 7.00283 3.79135 7.17118C3.9446 7.27385 4.05917 7.42397 4.11283 7.59765L4.13211 7.67332L4.14314 7.75078C4.16054 7.93167 4.11304 8.11315 4.00812 8.2645L4.0072 8.26539L3.91994 8.39004C7.16255 8.29845 9.19192 9.17684 10.2171 9.811C10.2341 9.62121 10.3209 9.44408 10.4614 9.31153C10.6182 9.1637 10.8284 9.08276 11.0447 9.08271C11.3893 9.08271 12.5428 9.02724 13.6156 8.97142C14.0087 8.95096 14.2005 8.49997 13.9352 8.21731C12.5891 6.78499 10.5356 4.60297 9.32527 3.33208ZM11.1457 10.1235C11.1297 10.2328 11.0906 10.3377 11.03 10.4316C10.9492 10.5565 10.8347 10.6572 10.7003 10.7227C10.5658 10.7882 10.4153 10.8172 10.2658 10.8073C10.1173 10.7975 9.97337 10.7495 9.84973 10.6675L9.68073 10.5607C8.77125 10.0056 6.86925 9.17644 3.73992 9.30529L3.73808 9.30618L3.73716 9.30529C3.58784 9.31159 3.43896 9.28022 3.30639 9.21181C3.17267 9.14272 3.05983 9.0389 2.98216 8.91088C2.90442 8.78273 2.8653 8.63562 2.8701 8.48619L2.88113 8.37579C2.90079 8.2663 2.94454 8.16196 3.0088 8.06952L3.15943 7.85228C2.82547 7.61707 2.1437 7.10384 1.53737 6.64143C0.685124 5.99147 0.879574 4.6936 1.88732 4.30521C3.47692 3.69257 5.96572 2.73504 7.50666 2.1524C8.38609 1.8201 9.37561 2.0418 10.016 2.7142C11.2288 3.98769 13.2848 6.17111 14.6305 7.60299C15.4298 8.45359 14.852 9.82051 13.6661 9.88223C12.6962 9.9327 11.6165 9.98344 11.154 9.99174V10.0131L11.1457 10.1235Z" fill="#333333"/>
<path d="M4.94199 10.6454C5.51548 10.632 6.16895 10.6886 6.77439 10.8199C7.22893 10.9185 7.71877 11.1084 8.14478 11.3319C8.56199 11.5508 8.96631 11.8274 9.21299 12.1242C9.37584 12.3203 9.34436 12.6073 9.14226 12.7653C8.93998 12.9232 8.64386 12.8919 8.48095 12.6958C8.3485 12.5365 8.0695 12.3288 7.69655 12.1331C7.33228 11.9421 6.92375 11.7864 6.56865 11.7094C6.041 11.5949 5.46393 11.5454 4.96404 11.5571C4.4397 11.5694 4.08291 11.6477 3.93808 11.728C3.7127 11.853 3.42597 11.7773 3.29697 11.5589C3.16795 11.3404 3.24608 11.0616 3.47149 10.9365C3.83266 10.7363 4.39309 10.6583 4.94199 10.6454Z" fill="#333333"/>
<path d="M12.9123 13.9732C12.3005 13.2272 12.5242 10.7426 12.5242 10.7426V10.7393H13.0078C13.0183 10.7394 13.0286 10.7415 13.0382 10.7453C13.0478 10.7491 13.0564 10.7547 13.0635 10.7616C13.0706 10.7685 13.0761 10.7767 13.0796 10.7855C13.0832 10.7944 13.0846 10.8038 13.084 10.8132C12.9703 12.4987 13.72 13.1837 14.1613 13.4382C14.1751 13.4461 14.1856 13.4578 14.1914 13.4716C14.1972 13.4854 14.1979 13.5004 14.1934 13.5146C14.1889 13.5287 14.1795 13.5412 14.1665 13.5501C14.1536 13.5591 14.1377 13.5641 14.1214 13.5643C13.4902 13.5893 13.1541 13.8503 13.0332 13.9732C13.0261 13.9815 13.0169 13.9883 13.0065 13.9929C12.996 13.9976 12.9844 14 12.9728 14C12.9611 14 12.9495 13.9976 12.939 13.9929C12.9286 13.9883 12.9194 13.9815 12.9123 13.9732Z" fill="#333333"/>
</svg>
